<mxfile host="app.diagrams.net" agent="Mozilla/5.0 (Macintosh; Intel Mac OS X 10_15_7) AppleWebKit/537.36 (KHTML, like Gecko) Chrome/130.0.0.0 Safari/537.36" version="24.7.7">
  <diagram name="PÃ¡gina-1" id="LqUW6YSfQXNWMtu9S0iZ">
    <mxGraphModel dx="2049" dy="1294" grid="1" gridSize="10" guides="1" tooltips="1" connect="1" arrows="1" fold="1" page="1" pageScale="1" pageWidth="1169" pageHeight="827" math="0" shadow="0">
      <root>
        <mxCell id="0" />
        <mxCell id="1" parent="0" />
        <mxCell id="YYWBsJbZ548qB3_pQd0q-4" value="" style="verticalLabelPosition=bottom;html=1;verticalAlign=top;align=center;strokeColor=none;fillColor=#00BEF2;shape=mxgraph.azure.computer;pointerEvents=1;" vertex="1" parent="1">
          <mxGeometry x="90" y="320" width="130" height="110" as="geometry" />
        </mxCell>
        <mxCell id="YYWBsJbZ548qB3_pQd0q-5" value="Cloud" style="html=1;whiteSpace=wrap;strokeColor=none;fillColor=#0079D6;labelPosition=center;verticalLabelPosition=middle;verticalAlign=top;align=center;fontSize=12;outlineConnect=0;spacingTop=-6;fontColor=#FFFFFF;sketch=0;shape=mxgraph.sitemap.cloud;" vertex="1" parent="1">
          <mxGeometry x="390" y="320" width="180" height="110" as="geometry" />
        </mxCell>
        <mxCell id="YYWBsJbZ548qB3_pQd0q-6" value="" style="image;aspect=fixed;html=1;points=[];align=center;fontSize=12;image=img/lib/azure2/app_services/Search_Services.svg;" vertex="1" parent="1">
          <mxGeometry x="648.54" y="150" width="124.59" height="90" as="geometry" />
        </mxCell>
        <mxCell id="YYWBsJbZ548qB3_pQd0q-7" value="" style="image;aspect=fixed;html=1;points=[];align=center;fontSize=12;image=img/lib/azure2/ai_machine_learning/Cognitive_Services.svg;" vertex="1" parent="1">
          <mxGeometry x="670" y="510" width="141.67" height="100" as="geometry" />
        </mxCell>
        <mxCell id="YYWBsJbZ548qB3_pQd0q-8" value="" style="image;aspect=fixed;html=1;points=[];align=center;fontSize=12;image=img/lib/azure2/general/Files.svg;" vertex="1" parent="1">
          <mxGeometry x="910" y="125" width="128" height="140" as="geometry" />
        </mxCell>
        <mxCell id="YYWBsJbZ548qB3_pQd0q-10" value="" style="edgeStyle=none;orthogonalLoop=1;jettySize=auto;html=1;rounded=0;" edge="1" parent="1">
          <mxGeometry width="100" relative="1" as="geometry">
            <mxPoint x="240" y="374.28999999999996" as="sourcePoint" />
            <mxPoint x="340" y="374.28999999999996" as="targetPoint" />
            <Array as="points" />
          </mxGeometry>
        </mxCell>
        <mxCell id="YYWBsJbZ548qB3_pQd0q-13" value="" style="edgeStyle=none;orthogonalLoop=1;jettySize=auto;html=1;rounded=0;" edge="1" parent="1">
          <mxGeometry width="100" relative="1" as="geometry">
            <mxPoint x="780" y="180" as="sourcePoint" />
            <mxPoint x="880" y="180" as="targetPoint" />
            <Array as="points" />
          </mxGeometry>
        </mxCell>
        <mxCell id="YYWBsJbZ548qB3_pQd0q-14" value="" style="edgeStyle=none;orthogonalLoop=1;jettySize=auto;html=1;endArrow=classic;startArrow=classic;endSize=8;startSize=8;rounded=0;" edge="1" parent="1">
          <mxGeometry width="100" relative="1" as="geometry">
            <mxPoint x="585" y="330" as="sourcePoint" />
            <mxPoint x="675" y="260" as="targetPoint" />
            <Array as="points" />
          </mxGeometry>
        </mxCell>
        <mxCell id="YYWBsJbZ548qB3_pQd0q-15" value="" style="edgeStyle=none;orthogonalLoop=1;jettySize=auto;html=1;endArrow=classic;startArrow=classic;endSize=8;startSize=8;rounded=0;" edge="1" parent="1">
          <mxGeometry width="100" relative="1" as="geometry">
            <mxPoint x="585" y="450" as="sourcePoint" />
            <mxPoint x="650" y="550" as="targetPoint" />
            <Array as="points" />
          </mxGeometry>
        </mxCell>
        <mxCell id="YYWBsJbZ548qB3_pQd0q-16" value="&lt;font style=&quot;font-size: 19px;&quot;&gt;UI Cliente&lt;/font&gt;" style="text;html=1;align=center;verticalAlign=middle;whiteSpace=wrap;rounded=0;" vertex="1" parent="1">
          <mxGeometry x="97.5" y="460" width="115" height="40" as="geometry" />
        </mxCell>
        <mxCell id="YYWBsJbZ548qB3_pQd0q-17" value="&lt;font style=&quot;font-size: 19px;&quot;&gt;Backend (Cloud)&lt;/font&gt;" style="text;html=1;align=center;verticalAlign=middle;whiteSpace=wrap;rounded=0;" vertex="1" parent="1">
          <mxGeometry x="410" y="460" width="115" height="40" as="geometry" />
        </mxCell>
        <mxCell id="YYWBsJbZ548qB3_pQd0q-18" value="&lt;span style=&quot;font-size: 19px;&quot;&gt;Azure OpenAPI / ChatGPT&lt;/span&gt;" style="text;html=1;align=center;verticalAlign=middle;whiteSpace=wrap;rounded=0;" vertex="1" parent="1">
          <mxGeometry x="683.3299999999999" y="640" width="115" height="40" as="geometry" />
        </mxCell>
        <mxCell id="YYWBsJbZ548qB3_pQd0q-19" value="&lt;font style=&quot;font-size: 19px;&quot;&gt;Azure Cognitive Search&lt;/font&gt;&lt;div&gt;&lt;font style=&quot;font-size: 19px;&quot;&gt;&lt;br&gt;&lt;/font&gt;&lt;/div&gt;" style="text;html=1;align=center;verticalAlign=middle;whiteSpace=wrap;rounded=0;" vertex="1" parent="1">
          <mxGeometry x="658.13" y="100" width="115" height="40" as="geometry" />
        </mxCell>
        <mxCell id="YYWBsJbZ548qB3_pQd0q-20" value="&lt;div&gt;&lt;font style=&quot;font-size: 19px;&quot;&gt;Arquivos de Contextos / Fontes de Dados&lt;/font&gt;&lt;/div&gt;" style="text;html=1;align=center;verticalAlign=middle;whiteSpace=wrap;rounded=0;" vertex="1" parent="1">
          <mxGeometry x="900" y="310" width="167" height="40" as="geometry" />
        </mxCell>
        <mxCell id="YYWBsJbZ548qB3_pQd0q-21" value="&lt;div&gt;&lt;font style=&quot;font-size: 19px;&quot;&gt;Query&amp;nbsp;&lt;/font&gt;&lt;/div&gt;&lt;div&gt;&lt;font style=&quot;font-size: 19px;&quot;&gt;Conhecimento&lt;/font&gt;&lt;/div&gt;" style="text;html=1;align=center;verticalAlign=middle;whiteSpace=wrap;rounded=0;" vertex="1" parent="1">
          <mxGeometry x="640" y="290" width="210" height="40" as="geometry" />
        </mxCell>
        <mxCell id="YYWBsJbZ548qB3_pQd0q-22" value="&lt;div&gt;&lt;font style=&quot;font-size: 19px;&quot;&gt;Prompt + Conhecimento Resposta&lt;/font&gt;&lt;/div&gt;" style="text;html=1;align=center;verticalAlign=middle;whiteSpace=wrap;rounded=0;" vertex="1" parent="1">
          <mxGeometry x="610" y="410" width="270" height="80" as="geometry" />
        </mxCell>
        <mxCell id="YYWBsJbZ548qB3_pQd0q-23" value="" style="edgeStyle=none;orthogonalLoop=1;jettySize=auto;html=1;rounded=0;" edge="1" parent="1">
          <mxGeometry width="100" relative="1" as="geometry">
            <mxPoint x="640" y="463" as="sourcePoint" />
            <mxPoint x="700" y="463" as="targetPoint" />
            <Array as="points" />
          </mxGeometry>
        </mxCell>
        <mxCell id="YYWBsJbZ548qB3_pQd0q-24" value="" style="edgeStyle=none;orthogonalLoop=1;jettySize=auto;html=1;rounded=0;" edge="1" parent="1">
          <mxGeometry width="100" relative="1" as="geometry">
            <mxPoint x="627" y="321" as="sourcePoint" />
            <mxPoint x="677" y="321" as="targetPoint" />
            <Array as="points" />
          </mxGeometry>
        </mxCell>
        <mxCell id="YYWBsJbZ548qB3_pQd0q-25" value="ChatBot Facil" style="text;html=1;align=center;verticalAlign=middle;whiteSpace=wrap;rounded=0;" vertex="1" parent="1">
          <mxGeometry width="120" height="30" as="geometry" />
        </mxCell>
      </root>
    </mxGraphModel>
  </diagram>
</mxfile>
